<svg xmlns="http://www.w3.org/2000/svg" xmlns:xlink="http://www.w3.org/1999/xlink" width="18" height="22" viewBox="0 0 18 22">
  <defs>
    <path id="clipboard-copy-a" d="M12,0 C13.1045695,0 14,0.8954305 14,2 L15,2 C16.6568542,2 18,3.34314575 18,5 L18,5 L18,19 C18,20.6568542 16.6568542,22 15,22 L15,22 L3,22 C1.34314575,22 0,20.6568542 0,19 L0,19 L0,5 C0,3.34314575 1.34314575,2 3,2 L3,2 L4,2 C4,0.8954305 4.8954305,0 6,0 L12,0 Z M4,4 L3,4 C2.44771525,4 2,4.44771525 2,5 L2,5 L2,19 C2,19.5522847 2.44771525,20 3,20 L3,20 L15,20 C15.5522847,20 16,19.5522847 16,19 L16,19 L16,5 C16,4.44771525 15.5522847,4 15,4 L15,4 L14,4 C14,5.1045695 13.1045695,6 12,6 L6,6 C4.8954305,6 4,5.1045695 4,4 Z M12,2 L6,2 L6,4 L12,4 L12,2 Z"/>
  </defs>
  <use fill="#FDDF02" xlink:href="#clipboard-copy-a"/>
</svg>
