<svg xmlns="http://www.w3.org/2000/svg" xmlns:xlink="http://www.w3.org/1999/xlink" width="13" height="15" viewBox="0 0 13 15">
  <defs>
    <path id="unlock-a" d="M6.10805341,0.666478714 C8.10154748,0.465115676 9.92328636,1.80708689 10.3220003,3.77065325 C10.3934366,4.12245882 10.1661523,4.46556409 9.81434675,4.53700033 C9.46254118,4.60843657 9.11943591,4.38115232 9.04799967,4.02934675 C8.78219036,2.72030251 7.56769777,1.82565503 6.23870172,1.95989706 C4.90970568,2.09413908 3.89865723,3.21358868 3.9,4.55 L3.9,4.55 L3.9,6.49951074 L11.05,6.5 C12.1269553,6.5 13,7.37304474 13,8.45 L13,13 C13,14.0769553 12.1269553,14.95 11.05,14.95 L1.95,14.95 C0.873044738,14.95 0,14.0769553 0,13 L0,8.45 C0,7.37304474 0.873044738,6.5 1.95,6.5 L2.599,6.49951074 L2.59999833,4.55065325 C2.59805373,2.61380405 4.01514181,0.980147226 5.91033232,0.691498339 Z M11.05,7.8 L1.95,7.8 C1.59101491,7.8 1.3,8.09101491 1.3,8.45 L1.3,13 C1.3,13.3589851 1.59101491,13.65 1.95,13.65 L11.05,13.65 C11.4089851,13.65 11.7,13.3589851 11.7,13 L11.7,8.45 C11.7,8.09101491 11.4089851,7.8 11.05,7.8 Z"/>
  </defs>
  <use fill="#FDDF02" xlink:href="#unlock-a"/>
</svg>
