<svg xmlns="http://www.w3.org/2000/svg" xmlns:xlink="http://www.w3.org/1999/xlink" width="11" height="13" viewBox="0 0 11 13">
  <defs>
    <path id="user-a" d="M7.94444444,7.33333333 C9.63198118,7.33333333 11,8.70135215 11,10.3888889 L11,10.3888889 L11,11.6111111 C11,11.9486185 10.7263962,12.2222222 10.3888889,12.2222222 C10.0513815,12.2222222 9.77777778,11.9486185 9.77777778,11.6111111 L9.77777778,11.6111111 L9.77777778,10.3888889 C9.77777778,9.37636685 8.95696649,8.55555556 7.94444444,8.55555556 L7.94444444,8.55555556 L3.05555556,8.55555556 C2.04303351,8.55555556 1.22222222,9.37636685 1.22222222,10.3888889 L1.22222222,10.3888889 L1.22222222,11.6111111 C1.22222222,11.9486185 0.948618458,12.2222222 0.611111111,12.2222222 C0.273603764,12.2222222 0,11.9486185 0,11.6111111 L0,11.6111111 L0,10.3888889 C0,8.70135215 1.36801882,7.33333333 3.05555556,7.33333333 L3.05555556,7.33333333 Z M5.5,0 C7.18753674,0 8.55555556,1.36801882 8.55555556,3.05555556 C8.55555556,4.74309229 7.18753674,6.11111111 5.5,6.11111111 C3.81246326,6.11111111 2.44444444,4.74309229 2.44444444,3.05555556 C2.44444444,1.36801882 3.81246326,0 5.5,0 Z M5.5,1.22222222 C4.48747796,1.22222222 3.66666667,2.04303351 3.66666667,3.05555556 C3.66666667,4.0680776 4.48747796,4.88888889 5.5,4.88888889 C6.51252204,4.88888889 7.33333333,4.0680776 7.33333333,3.05555556 C7.33333333,2.04303351 6.51252204,1.22222222 5.5,1.22222222 Z"/>
  </defs>
  <use fill="#FDDF02" xlink:href="#user-a"/>
</svg>
